<svg version="1.1" id="Capa_1" xmlns="http://www.w3.org/2000/svg" width="22" height="22" viewBox="0 0 512.001 512.001" style="enable-background:new 0 0 512.001 512.001;" xml:space="preserve">
	<path d="M488.521,23.366c-31.206-31.159-81.958-31.136-113.134,0.056L52.583,346.358c-10.478,10.466-18.479,23.425-23.138,37.478 l-0.299,0.901L0,511.988l127.367-29.092l0.9-0.298c14.063-4.651,27.033-12.641,37.52-23.115l322.789-322.922 c15.116-15.123,23.434-35.228,23.424-56.609C511.99,58.57,503.651,38.474,488.521,23.366z M53.157,458.862l11.905-51.976 l40.132,40.09L53.157,458.862z M141.748,427.017l-56.69-56.632l227.198-227.291l56.69,56.632L141.748,427.017z M397.193,171.468 l-56.69-56.632l21.686-21.695l56.69,56.632L397.193,171.468z M460.318,108.316l-13.193,13.199l-56.69-56.632l13.21-13.215 c15.609-15.617,41.02-15.629,56.645-0.028c7.575,7.564,11.751,17.626,11.756,28.332 C472.051,90.678,467.886,100.744,460.318,108.316z"/>
</svg>
