<svg xmlns="http://www.w3.org/2000/svg" width="28" height="28" viewBox="0 0 512 512" style="enable-background:new 0 0 512 512;" xml:space="preserve"><g>
	<path d="M286.025,60.847c-11.526,0-22.053,4.352-30.025,11.501c-7.972-7.148-18.5-11.501-30.025-11.501H0v390.306h512V60.847 H286.025z M240.999,421.152H30.001v-30.049h195.973c8.284,0,15.025,6.74,15.025,15.025V421.152z M240.999,363.689 c-4.702-1.669-9.756-2.588-15.025-2.588H30.001V90.848h195.973c8.284,0,15.025,6.74,15.025,15.025V363.689z M481.999,421.152 H271.001v-15.025c0-8.284,6.74-15.025,15.025-15.025h195.973V421.152z M481.999,361.101H286.025 c-5.268,0-10.322,0.918-15.025,2.588V105.873c0-8.284,6.74-15.025,15.025-15.025h195.973V361.101z"/>
	<polygon points="391.5,276.029 391.5,205.97 331.462,205.97 331.462,235.971 361.499,235.971 361.499,276.029 331.462,276.029 331.462,306.03 421.538,306.03 421.538,276.029"/>
	<rect x="361.487" y="145.917" width="30.021" height="30.001"/>
	<rect x="60.013" y="120.896" width="150.967" height="30.001"/>
	<rect x="60.013" y="180.949" width="150.967" height="30.001"/>
	<rect x="60.013" y="241.001" width="150.967" height="30.001"/>
	<rect x="60.013" y="301.054" width="150.967" height="30.001"/>
</g></svg>
